<?xml version="1.0" encoding="iso-8859-1"?>
<!-- Uploaded to: SVG Repo, www.svgrepo.com, Generator: SVG Repo Mixer Tools -->
<svg version="1.1" id="Layer_1" xmlns="http://www.w3.org/2000/svg" xmlns:xlink="http://www.w3.org/1999/xlink" 
	 viewBox="0 0 512.002 512.002" xml:space="preserve">
<path style="fill:#7CD8A4;" d="M369.581,437.212c0,0-6.46,27.805,7.15,45.632c13.609,17.828,42.134,18.926,42.134,18.926
	s6.46-27.805-7.15-45.632C398.105,438.31,369.581,437.212,369.581,437.212z"/>
<path style="fill:#C6C3CB;" d="M394.93,119.565v252.174h-98.723c-54.298,0-98.723-44.426-98.723-98.723V113.172L394.93,119.565z"/>
<g>
	<rect x="282.708" y="371.736" style="fill:#77757E;" width="24.253" height="65.469"/>
	<rect x="344.478" y="371.736" style="fill:#77757E;" width="24.253" height="65.469"/>
</g>
<path style="fill:#C6C3CB;" d="M64.422,74.624c0-26.544,15.576-49.441,38.082-60.077c-8.596-4.061-18.199-6.342-28.338-6.342
	c-36.682,0-66.419,29.737-66.419,66.419s29.737,66.419,66.419,66.419c10.138,0,19.741-2.28,28.338-6.342
	C79.998,124.066,64.422,101.167,64.422,74.624z"/>
<path style="fill:#DFDFE2;" d="M197.483,251.005v22.329c0,54.297,44.426,98.723,98.723,98.723h55.168
	c-9.205-19.504-26.775-54.063-42.531-69.819C247.286,240.682,203.262,249.497,197.483,251.005z"/>
<g>
	<rect x="282.708" y="371.736" style="fill:#3E3B43;" width="24.253" height="16.304"/>
	<rect x="344.478" y="371.736" style="fill:#3E3B43;" width="24.253" height="16.304"/>
</g>
<path style="fill:#77757E;" d="M376.96,92.151l63.538,205.47l0,0c-58.969,18.235-122.136-15.093-140.371-74.061l-4.526-14.637
	C295.601,208.923,386.217,189.873,376.96,92.151z"/>
<path style="opacity:0.29;fill:#3E3B43;enable-background:new    ;" d="M394.93,135.401c0,54.523-98.723,98.723-98.723,98.723
	s-98.723-44.2-98.723-98.723s44.2-98.723,98.723-98.723S394.93,80.877,394.93,135.401z"/>
<path style="fill:#DFDFE2;" d="M394.93,115.309c0,54.523-98.723,98.723-98.723,98.723s-98.723-44.2-98.723-98.723
	s44.2-98.723,98.723-98.723S394.93,60.786,394.93,115.309z"/>
<path style="fill:#C6C3CB;" d="M295.084,161.435c0-33.36,27.043-122.749,60.402-122.749h1.844
	c-16.985-13.815-38.647-22.101-62.246-22.101s-45.263,8.286-62.246,22.101h1.844C268.04,38.686,295.084,128.075,295.084,161.435z"/>
<g>
	<circle style="fill:#3E3B43;" cx="247.192" cy="98.948" r="13.034"/>
	<circle style="fill:#3E3B43;" cx="343.576" cy="98.948" r="13.034"/>
	<g style="opacity:0.14;">
		<path style="fill:#3E3B43;" d="M357.399,290.752l-0.831,80.987h38.361V301.89C379.769,299.884,368.735,296.337,357.399,290.752z"
			/>
		<path style="fill:#3E3B43;" d="M428.329,258.268l0.021-0.006l-4.49-14.521l-0.021,0.007l-8.531-27.586l0.021-0.007l-4.49-14.521
			l-0.021,0.007l-15.888-51.38v-30.696l-0.214-0.007c0.131-1.409,0.214-2.825,0.214-4.249c0-41.034-25.036-76.217-60.665-91.116
			c14.012,18.852,22.305,42.208,22.305,67.5c0,1.634-0.095,3.259-0.245,4.876l0.245,0.008v80.071l18.23,14.102l0.025-0.008
			l5.152,16.662l-0.024,0.008l9.787,31.652l0.024-0.008l5.152,16.662l-0.025,0.007l13.963,45.154c-1.922,0.594,1.929-0.5,0,0
			c12.354,0.503,19.203,0.591,31.644-3.257L428.329,258.268z"/>
	</g>
</g>
<path d="M247.048,120.599c11.378,0,20.634-9.256,20.634-20.634s-9.256-20.633-20.634-20.633c-11.377,0-20.633,9.256-20.633,20.633
	C226.414,111.343,235.671,120.599,247.048,120.599z M247.048,94.531c2.996,0,5.434,2.437,5.434,5.433
	c0,2.996-2.438,5.434-5.434,5.434c-2.996,0-5.433-2.438-5.433-5.434C241.615,96.968,244.052,94.531,247.048,94.531z"/>
<path d="M343.427,120.599c11.378,0,20.634-9.256,20.634-20.634s-9.256-20.633-20.634-20.633c-11.377,0-20.633,9.256-20.633,20.633
	C322.795,111.343,332.05,120.599,343.427,120.599z M343.427,94.531c2.996,0,5.434,2.437,5.434,5.433
	c0,2.996-2.438,5.434-5.434,5.434c-2.996,0-5.433-2.438-5.433-5.434C337.994,96.968,340.431,94.531,343.427,94.531z"/>
<path d="M504.4,430.625H376.187v-50.272h18.595c4.198,0,7.6-3.402,7.6-7.6v-57.528c1.278,0.042,2.557,0.075,3.839,0.075
	c12.758,0,25.729-2.055,38.462-6.384c3.969-1.349,6.097-5.655,4.754-9.627l-53.164-157.407c3.842-8.14,6.108-16.692,6.108-25.559
	C402.381,57.696,354.686,10,296.059,10S189.735,57.695,189.735,116.322c0,2.182,0.152,4.343,0.415,6.485
	c-0.264,0.773-0.415,1.598-0.415,2.461v126.767c0,0.006,0,0.012,0,0.019v21.976c0,51.403,36.669,94.4,85.222,104.216v52.379H171.781
	c-4.198,0-7.6,3.402-7.6,7.6c0,4.198,3.402,7.6,7.6,7.6h110.775h24.253h37.525h16.324c-0.967,10.834-0.578,28.94,9.885,42.644
	c15.601,20.438,46.571,21.858,47.881,21.908c0.099,0.004,0.198,0.006,0.296,0.006c3.52,0,6.598-2.427,7.4-5.88
	c0.297-1.278,7.09-31.526-8.511-51.962c-1.921-2.517-4.077-4.743-6.381-6.716h93.174c4.198,0,7.6-3.402,7.6-7.6
	C512.002,434.027,508.598,430.625,504.4,430.625z M416.977,250.68c-22.637,6.713-47.033,1.984-65.793-12.908
	c-3.29-2.608-8.068-2.059-10.678,1.228c-2.608,3.288-2.059,8.069,1.229,10.678c15.9,12.62,35.162,19.2,54.699,19.2
	c8.503,0,17.055-1.259,25.407-3.795l10.682,31.626c-12.075,3.157-24.289,4.047-36.155,2.918c-0.512-0.108-1.042-0.168-1.587-0.168
	c-0.01,0-0.019,0.001-0.028,0.001c-39.122-4.337-74.209-30.66-87.691-70.324l-3.185-9.372c14.486-7.034,57.935-29.859,82.005-61.149
	L416.977,250.68z M340.687,36.901c-14.951,9.269-26.37,30.347-33.963,48.767c-4.078,9.894-7.722,20.768-10.665,31.477
	c-2.943-10.708-6.587-21.584-10.665-31.477c-7.593-18.42-19.012-39.498-33.963-48.767c13.198-7.446,28.425-11.702,44.628-11.702
	C312.262,25.199,327.488,29.456,340.687,36.901z M236.578,47.345c24.932,1.926,51.881,81.2,51.881,115.104
	c0,4.198,3.402,7.6,7.6,7.6c4.198,0,7.6-3.402,7.6-7.6c0-33.903,26.948-113.175,51.88-115.104
	c19.366,16.722,31.643,41.443,31.643,68.977c0,24.901-25.027,48.281-46.023,63.511c-18.768,13.615-37.804,23.291-45.1,26.814
	c-7.299-3.523-26.332-13.2-45.101-26.814c-20.996-15.229-46.024-38.61-46.024-63.511C204.935,88.788,217.212,64.068,236.578,47.345z
	 M287.741,219.522l4.931,14.506c14.758,43.415,52.118,72.871,94.511,79.731v51.394h-18.595h-8.843
	c-5.833-25.097-40.563-62.832-44.843-67.41c-0.047-0.049-0.092-0.097-0.14-0.145c-51.139-51.874-91.809-56.095-109.826-54.669
	v-86.03C228.447,188.72,272.509,212.085,287.741,219.522z M336.734,380.352v50.272h-22.326v-50.272H336.734z M204.935,274.03
	v-15.887c13.064-1.424,49.815,0.263,98.933,50.053c13.906,14.885,34.796,41.123,40.192,56.956h-37.251h-10.75
	C245.813,365.153,204.935,324.274,204.935,274.03z M290.156,430.625v-50.272h5.902h3.15v50.272H290.156z M351.934,380.352h9.054
	v50.272h-9.054V380.352z M412.298,494.376c-8.256-1.415-22.093-5.198-29.673-15.13c-7.582-9.932-7.585-24.275-6.773-32.614
	c8.256,1.414,22.092,5.198,29.674,15.13C413.109,471.697,413.111,486.043,412.298,494.376z"/>
<path d="M105.604,22.432c2.658-1.255,4.353-3.932,4.353-6.871c0-2.939-1.695-5.616-4.353-6.871
	C95.676,3.998,85.049,1.619,74.02,1.619C33.206,1.619,0,34.823,0,75.637s33.206,74.019,74.02,74.019
	c11.03,0,21.656-2.379,31.584-7.071c2.658-1.255,4.353-3.933,4.353-6.871c0-2.94-1.695-5.616-4.353-6.871
	c-20.49-9.682-33.729-30.566-33.729-53.206S85.114,32.113,105.604,22.432z M56.675,75.637c0,22.7,10.576,43.997,27.914,57.876
	c-3.457,0.627-6.987,0.943-10.57,0.943c-32.433-0.001-58.82-26.387-58.82-58.819s26.387-58.819,58.82-58.819
	c3.583,0,7.112,0.316,10.57,0.943C67.25,31.64,56.675,52.937,56.675,75.637z"/>
</svg>